<?xml version="1.0" encoding="utf-8"?>
<!-- Generator: Adobe Illustrator 16.0.0, SVG Export Plug-In . SVG Version: 6.00 Build 0)  -->
<!DOCTYPE svg PUBLIC "-//W3C//DTD SVG 1.1//EN" "http://www.w3.org/Graphics/SVG/1.1/DTD/svg11.dtd">
<svg version="1.1" xmlns="http://www.w3.org/2000/svg" xmlns:xlink="http://www.w3.org/1999/xlink" x="0px" y="0px" width="70px"
	 height="70px" viewBox="0 0 70 70" enable-background="new 0 0 70 70" xml:space="preserve">
<g id="Layer_2" display="none">
	<rect x="-402.333" y="-31.667" display="inline" fill="#492E2E" width="340" height="136.667"/>
	<rect display="inline" fill="#492E2E" width="70" height="70"/>
</g>
<g id="Layer_1">
	<g>
		<path fill="#FFFFFF" d="M-283.548,4.167c4.792,0,8.882,1.479,12.267,4.442c3.383-2.962,7.401-4.442,12.054-4.442
			c5.922,0,10.575,2.113,13.959,6.344c2.678,3.243,3.947,6.908,3.805,10.997V48.79c0,2.116-0.915,3.735-2.748,4.865
			c-1.834,1.127-3.737,1.127-5.709,0c-1.834-1.13-2.75-2.749-2.75-4.865V21.508c-0.422-3.029-1.551-4.935-3.383-5.71
			c-0.706-0.281-1.763-0.423-3.173-0.423c-2.68,0-4.44,0.707-5.288,2.114c-0.705,1.271-1.127,2.608-1.268,4.019V40.25
			c0,2.114-0.917,3.737-2.749,4.865c-1.834,1.129-3.738,1.129-5.712,0c-1.834-0.989-2.749-2.609-2.749-4.865V21.508
			c-0.422-3.029-1.55-4.935-3.383-5.71c-0.705-0.281-1.763-0.423-3.172-0.423c-2.538,0-4.229,0.707-5.075,2.114
			c-0.847,1.482-1.341,2.82-1.481,4.019V48.79c0.14,2.116-0.776,3.735-2.749,4.865c-1.834,1.127-3.738,1.127-5.71,0
			c-1.834-1.13-2.751-2.749-2.751-4.865V21.508c0.565-8.742,4.511-14.24,11.844-16.496C-287.637,4.448-285.663,4.167-283.548,4.167z
			"/>
		<path fill="#FFFFFF" d="M-197.505,7.971c6.345,4.795,9.517,11.987,9.517,21.574c0,10.292-3.172,17.551-9.517,21.782
			c-3.526,2.259-7.474,3.384-11.845,3.384c-4.935,0-9.303-1.408-13.112-4.229c-5.355-4.513-7.966-11.49-7.824-20.937
			c0-10.01,3.173-17.132,9.518-21.362c3.384-2.395,7.19-3.593,11.419-3.593C-204.838,4.59-200.889,5.716-197.505,7.971z
			 M-209.35,43.715c6.91,0,10.363-4.723,10.363-14.169c0-9.164-3.453-13.748-10.363-13.748c-1.833,0-3.596,0.565-5.286,1.691
			c-3.104,1.975-4.653,5.993-4.653,12.056v0.845C-219.289,39.272-215.975,43.715-209.35,43.715z"/>
	</g>
	<path fill="none" stroke="#FFFFFF" stroke-width="2.5" stroke-miterlimit="10" d="M-171.367,38.232
		c0,18.157-13.347,32.877-29.81,32.877h-86.949c-16.462,0-29.809-14.72-29.809-32.877V20.646c0-18.16,13.346-32.878,29.809-32.878
		h86.949c16.463,0,29.81,14.718,29.81,32.878V38.232z"/>
	<path fill="none" stroke="#FFFFFF" stroke-width="2.5" stroke-miterlimit="10" d="M67.5,14.318C67.5,7.791,62.208,2.5,55.682,2.5
		H14.318C7.792,2.5,2.5,7.791,2.5,14.318v41.363C2.5,62.208,7.792,67.5,14.318,67.5h41.363c6.526,0,11.818-5.292,11.818-11.818
		V14.318z"/>
	<circle fill="none" stroke="#FFFFFF" stroke-width="2" stroke-miterlimit="10" cx="35" cy="35" r="21.338"/>
</g>
</svg>
